<svg width="1024" height="1024" viewBox="0 0 1024 1024" fill="none" xmlns="http://www.w3.org/2000/svg">
<rect width="1024" height="1024" fill="black"/>
<path d="M623.464 401.182C624.918 380.636 619.464 364.727 607.1 353.455C594.918 342.182 575.646 336.545 549.282 336.545C531.828 336.545 516.918 338.818 504.555 343.364C492.191 347.727 482.464 353.909 475.373 361.909C468.282 369.727 463.828 378.818 462.009 389.182C460.373 397.364 460.828 404.636 463.373 411C465.918 417.364 470.373 423 476.737 427.909C483.282 432.818 491.373 437.091 501.009 440.727C510.828 444.364 521.828 447.545 534.009 450.273L579.828 461.182C606.373 467.182 629.373 475.182 648.828 485.182C668.464 495 684.373 506.909 696.555 520.909C708.737 534.727 717.1 550.636 721.646 568.636C726.191 586.636 726.555 606.818 722.737 629.182C716.918 664.455 703.009 694.727 681.009 720C659.191 745.273 630.646 764.636 595.373 778.091C560.282 791.545 519.464 798.273 472.918 798.273C426.373 798.273 386.828 791.273 354.282 777.273C321.918 763.091 298.464 741.727 283.918 713.182C269.373 684.636 265.464 648.636 272.191 605.182H401.191C399.191 623.182 401.464 638.182 408.009 650.182C414.737 662.182 425.1 671.273 439.1 677.455C453.1 683.636 470.009 686.727 489.827 686.727C508.009 686.727 523.918 684.273 537.555 679.364C551.373 674.455 562.373 667.636 570.555 658.909C578.918 650.182 584.009 640.182 585.828 628.909C587.646 618.545 585.918 609.545 580.646 601.909C575.555 594.273 566.828 587.636 554.464 582C542.282 576.364 526.282 571.273 506.464 566.727L450.555 553.091C404.373 541.818 369.373 523.818 345.555 499.091C321.918 474.364 313.555 440.818 320.464 398.455C326.282 363.727 340.646 333.364 363.555 307.364C386.646 281.364 415.828 261.182 451.1 246.818C486.555 232.273 525.555 225 568.1 225C611.373 225 647.737 232.364 677.191 247.091C706.828 261.636 728.191 282.182 741.282 308.727C754.555 335.091 758.373 365.909 752.737 401.182H623.464Z" fill="white"/>
</svg>
