<svg width="1024" height="1024" viewBox="0 0 1024 1024" fill="none" xmlns="http://www.w3.org/2000/svg">
<rect width="1024" height="1024" fill="black"/>
<path d="M586.309 438.455C587.279 424.758 583.643 414.152 575.4 406.636C567.279 399.121 554.43 395.364 536.855 395.364C525.218 395.364 515.279 396.879 507.037 399.909C498.794 402.818 492.309 406.939 487.582 412.273C482.855 417.485 479.885 423.545 478.673 430.455C477.582 435.909 477.885 440.758 479.582 445C481.279 449.242 484.249 453 488.491 456.273C492.855 459.545 498.249 462.394 504.673 464.818C511.218 467.242 518.552 469.364 526.673 471.182L557.218 478.455C574.915 482.455 590.249 487.788 603.218 494.455C616.309 501 626.915 508.939 635.036 518.273C643.158 527.485 648.733 538.091 651.764 550.091C654.794 562.091 655.037 575.545 652.491 590.455C648.612 613.97 639.34 634.152 624.673 651C610.127 667.848 591.097 680.758 567.582 689.727C544.188 698.697 516.976 703.182 485.946 703.182C454.915 703.182 428.552 698.515 406.855 689.182C385.279 679.727 369.643 665.485 359.946 646.455C350.249 627.424 347.643 603.424 352.127 574.455H438.127C436.794 586.455 438.309 596.455 442.673 604.455C447.158 612.455 454.067 618.515 463.4 622.636C472.733 626.758 484.006 628.818 497.218 628.818C509.34 628.818 519.946 627.182 529.037 623.909C538.249 620.636 545.582 616.091 551.037 610.273C556.612 604.455 560.006 597.788 561.218 590.273C562.43 583.364 561.279 577.364 557.764 572.273C554.37 567.182 548.552 562.758 540.309 559C532.188 555.242 521.521 551.849 508.309 548.818L471.037 539.727C440.249 532.212 416.915 520.212 401.037 503.727C385.279 487.242 379.703 464.879 384.309 436.636C388.188 413.485 397.764 393.242 413.037 375.909C428.43 358.576 447.885 345.121 471.4 335.545C495.037 325.848 521.037 321 549.4 321C578.249 321 602.491 325.909 622.127 335.727C641.885 345.424 656.127 359.121 664.855 376.818C673.703 394.394 676.249 414.939 672.491 438.455H586.309Z" fill="white"/>
</svg>
